<svg width="25" height="25" viewBox="0 0 25 25" fill="none" xmlns="http://www.w3.org/2000/svg">
<path d="M2.32422 14.668L11.1475 22.9053C11.5137 23.2471 11.9971 23.4375 12.5 23.4375C13.0029 23.4375 13.4863 23.2471 13.8525 22.9053L22.6758 14.668C24.1602 13.2862 25 11.3477 25 9.32131V9.0381C25 5.62502 22.5342 2.71486 19.1699 2.15334C16.9434 1.78224 14.6777 2.50978 13.0859 4.10158L12.5 4.68752L11.9141 4.10158C10.3223 2.50978 8.05664 1.78224 5.83008 2.15334C2.46582 2.71486 0 5.62502 0 9.0381V9.32131C0 11.3477 0.839844 13.2862 2.32422 14.668Z" fill="#FF0000"/>
</svg>
