<svg width="25" height="25" viewBox="0 0 25 25" fill="none" xmlns="http://www.w3.org/2000/svg">
<path d="M11.9141 4.10158L12.4561 4.68751L13.042 4.10255C14.6777 2.50831 16.9434 1.78273 19.1699 2.15333C22.5342 2.71388 25 5.62501 25 9.0381V9.3213C25 11.3477 24.1602 13.2861 22.6758 14.668L13.8525 22.9053C13.4863 23.2471 13.0029 23.4375 12.5 23.4375C11.9971 23.4375 11.5137 23.2471 11.1475 22.9053L2.32373 14.668C0.841309 13.2861 0 11.3477 0 9.3213V9.0381C0 5.62501 2.4668 2.71388 5.83008 2.15333C8.0127 1.78273 10.3223 2.50831 11.9141 4.10158C11.9141 4.10206 11.8701 4.10158 11.9141 4.10158ZM12.4561 8.00294L10.2588 5.71779C9.19922 4.70119 7.69531 4.21876 6.21582 4.46486C3.98193 4.83742 2.34375 6.77248 2.34375 9.0381V9.3213C2.34375 10.6983 2.91553 12.0166 3.92285 12.9541L12.5 20.9619L21.0791 12.9541C22.085 12.0166 22.6562 10.6983 22.6562 9.3213V9.0381C22.6562 6.77248 21.0156 4.83742 18.7842 4.46486C17.3047 4.21876 15.8008 4.70119 14.7412 5.71779L12.4561 8.00294Z" fill="#FF0000"/>
</svg>
